<svg width="106" height="37" viewBox="0 0 106 37" fill="none" xmlns="http://www.w3.org/2000/svg">
<rect x="0.5" y="0.5" width="105" height="36" rx="6.5" fill="#0C0D10"/>
<rect x="0.5" y="0.5" width="105" height="36" rx="6.5" stroke="#A6A6A6"/>
<path d="M72.0145 17.7608V19.88H70.746V21.2698H72.0145V25.9919C72.0145 27.6043 72.7111 28.2493 74.4635 28.2493C74.7715 28.2493 75.0647 28.2109 75.3214 28.1648V26.7904C75.1014 26.8135 74.9621 26.8288 74.7201 26.8288C73.9356 26.8288 73.5909 26.4449 73.5909 25.5696V21.2698H75.3214V19.88H73.5909V17.7608H72.0145Z" fill="white"/>
<path d="M79.7856 28.3645C82.1173 28.3645 83.5471 26.729 83.5471 24.0186C83.5471 21.3235 82.11 19.6804 79.7856 19.6804C77.4539 19.6804 76.0168 21.3235 76.0168 24.0186C76.0168 26.729 77.4466 28.3645 79.7856 28.3645ZM79.7856 26.8979C78.4145 26.8979 77.6446 25.846 77.6446 24.0186C77.6446 22.2065 78.4145 21.1469 79.7856 21.1469C81.1494 21.1469 81.9267 22.2065 81.9267 24.0186C81.9267 25.8383 81.1494 26.8979 79.7856 26.8979Z" fill="white"/>
<path d="M84.7704 28.2032H86.3469V23.2661C86.3469 22.0913 87.1901 21.3005 88.3853 21.3005C88.6639 21.3005 89.1332 21.3542 89.2652 21.4003V19.7725C89.0965 19.7265 88.7959 19.7034 88.5613 19.7034C87.5201 19.7034 86.6329 20.3023 86.4056 21.1239H86.2882V19.8416H84.7704V28.2032Z" fill="white"/>
<path d="M93.1795 21.0855C94.3453 21.0855 95.1079 21.9378 95.1445 23.2508H91.1118C91.1997 21.9455 92.0136 21.0855 93.1795 21.0855ZM95.1372 25.9458C94.8439 26.5985 94.1913 26.9593 93.2381 26.9593C91.977 26.9593 91.1631 26.0303 91.1118 24.5637V24.4716H96.7503V23.8957C96.7503 21.2698 95.4085 19.6804 93.1868 19.6804C90.9358 19.6804 89.506 21.3773 89.506 24.0493C89.506 26.7213 90.9064 28.3645 93.1941 28.3645C95.0199 28.3645 96.2957 27.4431 96.655 25.9458H95.1372Z" fill="white"/>
<path d="M61.6763 25.1154C61.7979 27.1686 63.4319 28.4818 65.8638 28.4818C68.4629 28.4818 70.0893 27.105 70.0893 24.9085C70.0893 23.1816 69.1621 22.2266 66.9126 21.6774L65.7042 21.3671C64.2754 21.0169 63.6979 20.5474 63.6979 19.7277C63.6979 18.6931 64.5946 18.0167 65.9398 18.0167C67.2166 18.0167 68.0981 18.6772 68.2577 19.7356H69.9145C69.8157 17.8018 68.1893 16.4409 65.9626 16.4409C63.5687 16.4409 61.9727 17.8018 61.9727 19.847C61.9727 21.5342 62.8771 22.5369 64.8606 23.0224L66.2742 23.3805C67.7257 23.7386 68.3641 24.2639 68.3641 25.1393C68.3641 26.1579 67.3609 26.8981 65.993 26.8981C64.5262 26.8981 63.5079 26.2057 63.3635 25.1154H61.6763Z" fill="white"/>
<path d="M45.3458 19.7034C44.2607 19.7034 43.3221 20.2716 42.8382 21.2237H42.7209V19.8416H41.2031V30.9827H42.7795V26.9363H42.9042C43.3221 27.8193 44.224 28.3414 45.3605 28.3414C47.3769 28.3414 48.6601 26.6752 48.6601 24.0186C48.6601 21.3619 47.3769 19.7034 45.3458 19.7034ZM44.8986 26.8595C43.5787 26.8595 42.7502 25.7692 42.7502 24.0263C42.7502 22.2756 43.5787 21.1853 44.9059 21.1853C46.2404 21.1853 47.0396 22.2526 47.0396 24.0186C47.0396 25.7923 46.2404 26.8595 44.8986 26.8595Z" fill="white"/>
<path d="M54.1763 19.7034C53.0912 19.7034 52.1526 20.2716 51.6687 21.2237H51.5514V19.8416H50.0336V30.9827H51.61V26.9363H51.7347C52.1526 27.8193 53.0545 28.3414 54.191 28.3414C56.2074 28.3414 57.4906 26.6752 57.4906 24.0186C57.4906 21.3619 56.2074 19.7034 54.1763 19.7034ZM53.7291 26.8595C52.4092 26.8595 51.5807 25.7692 51.5807 24.0263C51.5807 22.2756 52.4092 21.1853 53.7364 21.1853C55.0709 21.1853 55.8701 22.2526 55.8701 24.0186C55.8701 25.7923 55.0709 26.8595 53.7291 26.8595Z" fill="white"/>
<path d="M38.3746 28.2032H40.1834L36.2239 16.7195H34.3923L30.4329 28.2032H32.1808L33.1916 25.1552H37.3715L38.3746 28.2032ZM35.2207 18.8045H35.3499L36.9383 23.6591H33.6248L35.2207 18.8045Z" fill="white"/>
<path d="M31.4919 8.05761V13.5974H33.402C34.9785 13.5974 35.8914 12.5801 35.8914 10.8103C35.8914 9.0673 34.9711 8.05761 33.402 8.05761H31.4919ZM32.3132 8.84079H33.3104C34.4066 8.84079 35.0555 9.57022 35.0555 10.8218C35.0555 12.0925 34.4176 12.8143 33.3104 12.8143H32.3132V8.84079Z" fill="white"/>
<path d="M38.6872 13.6781C39.853 13.6781 40.5679 12.8603 40.5679 11.5051C40.5679 10.1576 39.8494 9.33604 38.6872 9.33604C37.5213 9.33604 36.8028 10.1576 36.8028 11.5051C36.8028 12.8603 37.5177 13.6781 38.6872 13.6781ZM38.6872 12.9448C38.0016 12.9448 37.6167 12.4188 37.6167 11.5051C37.6167 10.5991 38.0016 10.0693 38.6872 10.0693C39.3691 10.0693 39.7577 10.5991 39.7577 11.5051C39.7577 12.415 39.3691 12.9448 38.6872 12.9448Z" fill="white"/>
<path d="M46.656 9.41666H45.8678L45.1565 12.607H45.0942L44.273 9.41666H43.5177L42.6965 12.607H42.6379L41.923 9.41666H41.1237L42.2236 13.5974H43.0338L43.855 10.5185H43.9174L44.7422 13.5974H45.5598L46.656 9.41666Z" fill="white"/>
<path d="M47.5637 13.5974H48.352V11.1519C48.352 10.4993 48.7222 10.0923 49.3052 10.0923C49.8881 10.0923 50.1667 10.4263 50.1667 11.0982V13.5974H50.9549V10.8909C50.9549 9.89655 50.4637 9.33604 49.5728 9.33604C48.9715 9.33604 48.5756 9.61629 48.3813 10.0808H48.3226V9.41666H47.5637V13.5974Z" fill="white"/>
<path d="M52.1963 13.5974H52.9845V7.78503H52.1963V13.5974Z" fill="white"/>
<path d="M55.949 13.6781C57.1149 13.6781 57.8298 12.8603 57.8298 11.5051C57.8298 10.1576 57.1112 9.33604 55.949 9.33604C54.7832 9.33604 54.0646 10.1576 54.0646 11.5051C54.0646 12.8603 54.7795 13.6781 55.949 13.6781ZM55.949 12.9448C55.2634 12.9448 54.8785 12.4188 54.8785 11.5051C54.8785 10.5991 55.2634 10.0693 55.949 10.0693C56.6309 10.0693 57.0195 10.5991 57.0195 11.5051C57.0195 12.415 56.6309 12.9448 55.949 12.9448Z" fill="white"/>
<path d="M60.1783 12.9717C59.7494 12.9717 59.4378 12.7528 59.4378 12.3766C59.4378 12.0081 59.6871 11.8123 60.237 11.7739L61.2122 11.7086V12.058C61.2122 12.5762 60.7722 12.9717 60.1783 12.9717ZM59.9767 13.6666C60.5009 13.6666 60.9372 13.4285 61.1755 13.0101H61.2378V13.5974H61.9967V10.7411C61.9967 9.85815 61.4322 9.33604 60.4313 9.33604C59.5257 9.33604 58.8805 9.79673 58.7998 10.5146H59.5624C59.6504 10.219 59.9547 10.0501 60.3946 10.0501C60.9336 10.0501 61.2122 10.2997 61.2122 10.7411V11.102L60.1307 11.1673C59.1811 11.2287 58.6459 11.6625 58.6459 12.415C58.6459 13.179 59.2068 13.6666 59.9767 13.6666Z" fill="white"/>
<path d="M64.6716 13.6666C65.2215 13.6666 65.6871 13.394 65.9254 12.9371H65.9877V13.5974H66.743V7.78503H65.9548V10.0808H65.8961C65.6798 9.62013 65.2178 9.34755 64.6716 9.34755C63.6634 9.34755 63.0145 10.1845 63.0145 11.5051C63.0145 12.8296 63.6561 13.6666 64.6716 13.6666ZM64.8952 10.0885C65.5551 10.0885 65.9694 10.6375 65.9694 11.509C65.9694 12.3843 65.5588 12.9256 64.8952 12.9256C64.228 12.9256 63.8284 12.392 63.8284 11.5051C63.8284 10.626 64.2316 10.0885 64.8952 10.0885Z" fill="white"/>
<path d="M71.8544 13.6781C73.0202 13.6781 73.7351 12.8603 73.7351 11.5051C73.7351 10.1576 73.0165 9.33604 71.8544 9.33604C70.6885 9.33604 69.97 10.1576 69.97 11.5051C69.97 12.8603 70.6849 13.6781 71.8544 13.6781ZM71.8544 12.9448C71.1688 12.9448 70.7838 12.4188 70.7838 11.5051C70.7838 10.5991 71.1688 10.0693 71.8544 10.0693C72.5363 10.0693 72.9249 10.5991 72.9249 11.5051C72.9249 12.415 72.5363 12.9448 71.8544 12.9448Z" fill="white"/>
<path d="M74.7785 13.5974H75.5667V11.1519C75.5667 10.4993 75.937 10.0923 76.5199 10.0923C77.1029 10.0923 77.3815 10.4263 77.3815 11.0982V13.5974H78.1697V10.8909C78.1697 9.89655 77.6785 9.33604 76.7876 9.33604C76.1863 9.33604 75.7904 9.61629 75.5961 10.0808H75.5374V9.41666H74.7785V13.5974Z" fill="white"/>
<path d="M81.8 8.37626V9.43585H81.1657V10.1307H81.8V12.4918C81.8 13.298 82.1483 13.6205 83.0245 13.6205C83.1785 13.6205 83.3251 13.6013 83.4534 13.5783V12.8911C83.3434 12.9026 83.2738 12.9102 83.1528 12.9102C82.7605 12.9102 82.5882 12.7183 82.5882 12.2806V10.1307H83.4534V9.43585H82.5882V8.37626H81.8Z" fill="white"/>
<path d="M84.5115 13.5974H85.2997V11.1558C85.2997 10.5223 85.659 10.0962 86.3042 10.0962C86.8615 10.0962 87.1585 10.434 87.1585 11.102V13.5974H87.9467V10.8986C87.9467 9.90422 87.4224 9.33987 86.5719 9.33987C85.9706 9.33987 85.549 9.62013 85.3547 10.0885H85.2924V7.78503H84.5115V13.5974Z" fill="white"/>
<path d="M90.7902 10.0386C91.3731 10.0386 91.7544 10.4647 91.7727 11.1212H89.7563C89.8003 10.4686 90.2073 10.0386 90.7902 10.0386ZM91.769 12.4687C91.6224 12.7951 91.2961 12.9755 90.8195 12.9755C90.1889 12.9755 89.782 12.511 89.7563 11.7777V11.7316H92.5756V11.4437C92.5756 10.1307 91.9047 9.33604 90.7938 9.33604C89.6683 9.33604 88.9534 10.1845 88.9534 11.5205C88.9534 12.8565 89.6537 13.6781 90.7975 13.6781C91.7104 13.6781 92.3483 13.2174 92.5279 12.4687H91.769Z" fill="white"/>
<path d="M21.8793 18.7782C21.8984 17.2233 22.6959 15.752 23.9609 14.9376C23.1629 13.744 21.8261 12.9873 20.4354 12.9417C18.9521 12.7787 17.5141 13.8712 16.7582 13.8712C15.9877 13.8712 14.8239 12.9579 13.5707 12.9849C11.9372 13.0402 10.4143 14.0127 9.6196 15.5082C7.91123 18.6055 9.18552 23.1575 10.822 25.6611C11.6408 26.887 12.5976 28.2564 13.8497 28.2079C15.075 28.1547 15.5326 27.3897 17.0115 27.3897C18.4768 27.3897 18.9061 28.2079 20.1836 28.177C21.4983 28.1546 22.3267 26.9456 23.1167 25.708C23.705 24.8345 24.1577 23.8691 24.458 22.8475C22.9129 22.1632 21.8811 20.5349 21.8793 18.7782Z" fill="white"/>
<path d="M19.4663 11.2952C20.1832 10.3941 20.5364 9.23582 20.4508 8.06641C19.3556 8.18686 18.344 8.73498 17.6175 9.60155C16.907 10.4482 16.5373 11.5861 16.6072 12.7108C17.7028 12.7226 18.7798 12.1894 19.4663 11.2952Z" fill="white"/>
</svg>
