<svg width="16" height="17" viewBox="0 0 16 17" fill="none" xmlns="http://www.w3.org/2000/svg">
<g clip-path="url(#clip0_843_247)">
<path d="M6 7.83325C6 8.36369 6.21071 8.87239 6.58579 9.24747C6.96086 9.62254 7.46957 9.83325 8 9.83325C8.53043 9.83325 9.03914 9.62254 9.41421 9.24747C9.78929 8.87239 10 8.36369 10 7.83325C10 7.30282 9.78929 6.79411 9.41421 6.41904C9.03914 6.04397 8.53043 5.83325 8 5.83325C7.46957 5.83325 6.96086 6.04397 6.58579 6.41904C6.21071 6.79411 6 7.30282 6 7.83325Z" stroke="#00BFA5" stroke-linecap="round" stroke-linejoin="round"/>
<path d="M11.7713 11.6047L8.94263 14.4334C8.69262 14.6831 8.35368 14.8234 8.0003 14.8234C7.64691 14.8234 7.30797 14.6831 7.05796 14.4334L4.22863 11.6047C3.48278 10.8588 2.97485 9.90852 2.76909 8.87396C2.56332 7.8394 2.66896 6.76706 3.07263 5.79254C3.47631 4.81801 4.15989 3.98508 5.03695 3.39905C5.91401 2.81303 6.94514 2.50024 7.99996 2.50024C9.05478 2.50024 10.0859 2.81303 10.963 3.39905C11.84 3.98508 12.5236 4.81801 12.9273 5.79254C13.331 6.76706 13.4366 7.8394 13.2308 8.87396C13.0251 9.90852 12.5171 10.8588 11.7713 11.6047Z" stroke="#00BFA5" stroke-linecap="round" stroke-linejoin="round"/>
</g>
<defs>
<clipPath id="clip0_843_247">
<rect width="16" height="16" fill="white" transform="translate(0 0.5)"/>
</clipPath>
</defs>
</svg>
