<svg width="124" height="37" viewBox="0 0 124 37" fill="none" xmlns="http://www.w3.org/2000/svg">
<rect x="0.5" y="0.5" width="123" height="36" rx="4.5" fill="black"/>
<rect x="0.5" y="0.5" width="123" height="36" rx="4.5" stroke="#A6A6A6"/>
<path d="M98.2215 27.75H99.9354V16.186H98.2215V27.75ZM113.659 20.3518L111.694 25.3652H111.636L109.596 20.3518H107.75L110.809 27.3587L109.065 31.2567H110.852L115.565 20.3518H113.659ZM103.938 26.4366C103.378 26.4366 102.595 26.1536 102.595 25.4545C102.595 24.562 103.57 24.2198 104.411 24.2198C105.165 24.2198 105.52 24.3832 105.977 24.6065C105.844 25.6778 104.928 26.4366 103.938 26.4366V26.4366ZM104.146 20.0989C102.905 20.0989 101.62 20.6495 101.088 21.8694L102.609 22.5089C102.934 21.8694 103.54 21.6613 104.175 21.6613C105.062 21.6613 105.963 22.1964 105.977 23.1489V23.2677C105.667 23.0892 105.002 22.8215 104.19 22.8215C102.55 22.8215 100.881 23.7287 100.881 25.4248C100.881 26.9721 102.225 27.969 103.732 27.969C104.883 27.969 105.52 27.4483 105.918 26.838H105.977V27.7312H107.633V23.2973C107.633 21.2443 106.11 20.0989 104.146 20.0989V20.0989ZM93.5535 21.7595H91.1158V17.7958H93.5535C94.8349 17.7958 95.5623 18.8639 95.5623 19.7776C95.5623 20.6737 94.8349 21.7595 93.5535 21.7595V21.7595ZM93.5095 16.186H89.4026V27.75H91.1158V23.3689H93.5095C95.409 23.3689 97.2763 21.9843 97.2763 19.7776C97.2763 17.5714 95.409 16.186 93.5095 16.186ZM71.1147 26.4387C69.9306 26.4387 68.9396 25.44 68.9396 24.0695C68.9396 22.6831 69.9306 21.6702 71.1147 21.6702C72.2837 21.6702 73.2011 22.6831 73.2011 24.0695C73.2011 25.44 72.2837 26.4387 71.1147 26.4387V26.4387ZM73.0827 20.9993H73.0235C72.6389 20.5375 71.8986 20.1202 70.9669 20.1202C69.0132 20.1202 67.2228 21.8491 67.2228 24.0695C67.2228 26.2747 69.0132 27.9885 70.9669 27.9885C71.8986 27.9885 72.6389 27.5711 73.0235 27.0945H73.0827V27.6604C73.0827 29.166 72.2837 29.9704 70.9963 29.9704C69.9461 29.9704 69.2949 29.2105 69.0283 28.5698L67.5339 29.1957C67.9627 30.2385 69.1018 31.5204 70.9963 31.5204C73.0091 31.5204 74.7109 30.3281 74.7109 27.4219V20.3587H73.0827V20.9993ZM75.8949 27.75H77.6107V16.186H75.8949V27.75ZM80.1413 23.9351C80.0972 22.415 81.311 21.6403 82.1836 21.6403C82.8646 21.6403 83.4411 21.9832 83.6342 22.4746L80.1413 23.9351ZM85.4684 22.6235C85.1429 21.7447 84.1516 20.1202 82.1243 20.1202C80.1115 20.1202 78.4395 21.7147 78.4395 24.0543C78.4395 26.2599 80.0972 27.9885 82.3163 27.9885C84.1067 27.9885 85.1429 26.886 85.5724 26.245L84.2405 25.3507C83.7964 26.0065 83.19 26.4387 82.3163 26.4387C81.4437 26.4387 80.822 26.0362 80.423 25.2464L85.6459 23.0708L85.4684 22.6235ZM43.8523 21.3273V22.9963H47.818C47.6996 23.9351 47.3889 24.6205 46.9153 25.0975C46.338 25.6785 45.4353 26.3195 43.8523 26.3195C41.4106 26.3195 39.5019 24.3376 39.5019 21.8787C39.5019 19.4199 41.4106 17.4377 43.8523 17.4377C45.1694 17.4377 46.131 17.9594 46.8414 18.63L48.0107 17.4525C47.019 16.4989 45.7022 15.7687 43.8523 15.7687C40.5075 15.7687 37.696 18.5108 37.696 21.8787C37.696 25.2464 40.5075 27.9885 43.8523 27.9885C45.6574 27.9885 47.019 27.3923 48.0843 26.2747C49.1794 25.1719 49.5199 23.6222 49.5199 22.3702C49.5199 21.9832 49.49 21.6255 49.4309 21.3273H43.8523ZM54.0285 26.4387C52.8444 26.4387 51.8233 25.4552 51.8233 24.0543C51.8233 22.6386 52.8444 21.6702 54.0285 21.6702C55.2121 21.6702 56.2332 22.6386 56.2332 24.0543C56.2332 25.4552 55.2121 26.4387 54.0285 26.4387V26.4387ZM54.0285 20.1202C51.8674 20.1202 50.1068 21.7743 50.1068 24.0543C50.1068 26.3195 51.8674 27.9885 54.0285 27.9885C56.1888 27.9885 57.9497 26.3195 57.9497 24.0543C57.9497 21.7743 56.1888 20.1202 54.0285 20.1202ZM62.5825 26.4387C61.3992 26.4387 60.3778 25.4552 60.3778 24.0543C60.3778 22.6386 61.3992 21.6702 62.5825 21.6702C63.7665 21.6702 64.7873 22.6386 64.7873 24.0543C64.7873 25.4552 63.7665 26.4387 62.5825 26.4387ZM62.5825 20.1202C60.4222 20.1202 58.6616 21.7743 58.6616 24.0543C58.6616 26.3195 60.4222 27.9885 62.5825 27.9885C64.7436 27.9885 66.5042 26.3195 66.5042 24.0543C66.5042 21.7743 64.7436 20.1202 62.5825 20.1202Z" fill="white"/>
<path d="M40.8531 12.2418C40.0296 12.2418 39.3212 11.95 38.7502 11.375C38.1788 10.7996 37.8894 10.0791 37.8894 9.24135C37.8894 8.40359 38.1789 7.68439 38.7502 7.1077C39.3212 6.53258 40.0296 6.24088 40.8531 6.24088C41.2726 6.24088 41.6642 6.31385 42.0383 6.46581C42.4127 6.61778 42.7189 6.82874 42.9601 7.10481L43.017 7.17003L42.3745 7.81681L42.3103 7.73732C42.1504 7.53942 41.947 7.38567 41.6892 7.27392C41.4324 7.16244 41.1511 7.11096 40.8531 7.11096C40.273 7.11096 39.7918 7.30932 39.3899 7.71257C39.3898 7.71266 39.3896 7.71265 39.3895 7.71275C38.9968 8.12414 38.7993 8.62501 38.7993 9.24135C38.7993 9.85817 38.997 10.3591 39.3902 10.7707C39.7921 11.1737 40.2733 11.3732 40.8531 11.3732C41.384 11.3732 41.8231 11.2239 42.1684 10.9284H42.1686C42.49 10.6534 42.6829 10.2817 42.7511 9.80792H40.7612V8.95518H43.6111L43.6233 9.03323C43.6467 9.18313 43.6632 9.32783 43.6632 9.46682C43.6632 10.2625 43.4223 10.912 42.9497 11.3898C42.4162 11.9593 41.7146 12.2418 40.8531 12.2418L40.8531 12.2418ZM65.5996 12.2418C64.7749 12.2418 64.0748 11.9499 63.5111 11.375C63.511 11.3749 63.511 11.3749 63.5109 11.3748C63.5108 11.3747 63.5108 11.3747 63.5107 11.3746C62.9462 10.8059 62.6661 10.0853 62.6661 9.24134C62.6661 8.39738 62.9462 7.67674 63.5107 7.10806C63.5107 7.108 63.5108 7.10797 63.5109 7.10787L63.5111 7.10769C64.0748 6.53271 64.7749 6.24086 65.5996 6.24086C66.4227 6.24086 67.123 6.53278 67.6867 7.11636C68.2514 7.68496 68.5317 8.40422 68.5317 9.24133C68.5317 10.0853 68.2516 10.8059 67.6871 11.3746L67.6869 11.3748C67.1228 11.9501 66.416 12.2418 65.5996 12.2418L65.5996 12.2418ZM44.4787 12.1175V6.36518H44.5706H47.8901V7.23525H45.3728V8.81498H47.6433V9.66771H45.3728V11.2489H47.8901V12.1175H44.4787ZM49.978 12.1175V7.23525H48.4337V6.36518H52.4164V7.23525H52.3245H50.8721V12.1175H49.978ZM54.9617 12.1175V6.36518H55.8558V6.45768V12.1175H54.9617ZM58.1065 12.1175V7.23525H56.5622V6.36518H60.5449V7.23525H60.453H59.0006V12.1175H58.1065ZM69.3253 12.1175V6.36518H70.3336L72.8995 10.502L72.8774 9.71667V6.36518H73.7715V12.1175H72.8868L70.1974 7.77165L70.2195 8.55645V8.55771V12.1175H69.3253ZM65.5996 11.3732C66.1796 11.3732 66.6531 11.174 67.0391 10.7714L67.0396 10.7707L67.0402 10.7701C67.4317 10.3758 67.6232 9.86812 67.6232 9.24132C67.6232 8.61604 67.4316 8.10669 67.0402 7.71254L67.0396 7.71198L67.0391 7.71143C66.6532 7.30893 66.1798 7.1109 65.5996 7.1109C65.0185 7.1109 64.5451 7.30859 64.1519 7.71107L64.1515 7.71144C63.7673 8.11516 63.576 8.61621 63.576 9.2413C63.576 9.86791 63.7672 10.3674 64.1515 10.7712L64.1519 10.7715C64.5451 11.1741 65.0186 11.3731 65.5996 11.3731V11.3732Z" fill="white"/>
<path d="M19.0268 17.9665L9.2478 28.419C9.24817 28.4212 9.2489 28.423 9.24927 28.4251C9.54917 29.5601 10.5786 30.3958 11.8003 30.3958C12.2887 30.3958 12.7472 30.2628 13.1404 30.0294L13.1716 30.011L24.1791 23.6144L19.0268 17.9665" fill="#EA4335"/>
<path d="M28.9202 16.1866L28.9109 16.1801L24.1586 13.4058L18.8047 18.2036L24.1773 23.6133L28.9044 20.8666C29.7332 20.416 30.2958 19.5361 30.2958 18.5215C30.2958 17.5142 29.7408 16.6387 28.9202 16.1866" fill="#FBBC04"/>
<path d="M9.2474 8.58061C9.18861 8.79891 9.15771 9.02756 9.15771 9.26501V27.735C9.15771 27.972 9.18825 28.2015 9.24777 28.419L19.3633 18.2339L9.2474 8.58061Z" fill="#4285F4"/>
<path d="M19.0988 18.4999L24.1604 13.4041L13.1653 6.98437C12.7657 6.74331 12.2993 6.60419 11.8002 6.60419C10.5784 6.60419 9.54767 7.44141 9.24768 8.57777C9.24731 8.57888 9.24731 8.57962 9.24731 8.58064L19.0988 18.4999Z" fill="#34A853"/>
</svg>
