<svg width="24" height="25" viewBox="0 0 24 25" fill="none" xmlns="http://www.w3.org/2000/svg">
<rect y="0.5" width="24" height="24" rx="12" fill="#212121"/>
<path fill-rule="evenodd" clip-rule="evenodd" d="M5.43202 12.3734C8.93026 10.8492 11.263 9.84443 12.4302 9.35896C15.7627 7.97285 16.4551 7.73207 16.9065 7.72411C17.0058 7.72237 17.2277 7.74697 17.3715 7.86363C17.4929 7.96214 17.5263 8.09521 17.5423 8.1886C17.5583 8.282 17.5782 8.49476 17.5623 8.661C17.3818 10.5585 16.6003 15.1632 16.2028 17.2884C16.0346 18.1876 15.7034 18.4892 15.3827 18.5187C14.6858 18.5828 14.1567 18.0581 13.4817 17.6157C12.4256 16.9234 11.8289 16.4924 10.8037 15.8168C9.61896 15.0361 10.387 14.607 11.0622 13.9057C11.2389 13.7221 14.3093 10.9294 14.3687 10.676C14.3762 10.6443 14.3831 10.5262 14.3129 10.4639C14.2427 10.4015 14.1392 10.4228 14.0644 10.4398C13.9585 10.4638 12.2713 11.579 9.00276 13.7854C8.52385 14.1142 8.09007 14.2745 7.70141 14.2661C7.27295 14.2568 6.44876 14.0238 5.83606 13.8246C5.08456 13.5804 4.48728 13.4512 4.53929 13.0363C4.56638 12.8202 4.86395 12.5993 5.43202 12.3734Z" fill="white"/>
</svg>
