<svg width="24" height="25" viewBox="0 0 24 25" fill="none" xmlns="http://www.w3.org/2000/svg">
<rect y="0.5" width="24" height="24" rx="12" fill="#212121"/>
<path d="M14.8229 6.5H12.4553V15.3551C12.4553 16.4102 11.5447 17.2768 10.4115 17.2768C9.27825 17.2768 8.36762 16.4102 8.36762 15.3551C8.36762 14.3188 9.25801 13.471 10.3508 13.4333V11.2102C7.94266 11.2478 6 13.0754 6 15.3551C6 17.6536 7.98314 19.5 10.4317 19.5C12.8803 19.5 14.8634 17.6348 14.8634 15.3551V10.8145C15.7538 11.4174 16.8465 11.7754 18 11.7942V9.57102C16.2192 9.51449 14.8229 8.15797 14.8229 6.5Z" fill="white"/>
</svg>
