<svg width="24" height="25" viewBox="0 0 24 25" fill="none" xmlns="http://www.w3.org/2000/svg">
<circle cx="12" cy="12.5" r="12" fill="#212121"/>
<path d="M12.0446 7.24911H12.1225C12.8418 7.25174 16.4861 7.27799 17.4688 7.54224C17.7658 7.62289 18.0365 7.78008 18.2538 7.99812C18.471 8.21616 18.6273 8.4874 18.7069 8.78474C18.7952 9.11724 18.8574 9.55736 18.8994 10.0115L18.9081 10.1025L18.9274 10.33L18.9344 10.421C18.9913 11.2207 18.9983 11.9697 18.9991 12.1334V12.199C18.9983 12.3687 18.9904 13.1685 18.9274 14.0015L18.9204 14.0934L18.9125 14.1844C18.8687 14.6849 18.804 15.1819 18.7069 15.5476C18.6273 15.845 18.471 16.1162 18.2538 16.3342C18.0365 16.5523 17.7658 16.7095 17.4688 16.7901C16.4537 17.0631 12.5959 17.0824 12.0612 17.0832H11.937C11.6666 17.0832 10.5484 17.078 9.37587 17.0377L9.22712 17.0325L9.151 17.029L9.00138 17.0229L8.85175 17.0167C7.8805 16.9739 6.95563 16.9047 6.5295 16.7892C6.23255 16.7087 5.96193 16.5516 5.74467 16.3337C5.52741 16.1159 5.37111 15.8448 5.29138 15.5476C5.19425 15.1827 5.1295 14.6849 5.08575 14.1844L5.07875 14.0925L5.07175 14.0015C5.02832 13.4086 5.00439 12.8144 5 12.22L5 12.1124C5.00175 11.9242 5.00875 11.2741 5.056 10.5566L5.06213 10.4665L5.06475 10.421L5.07175 10.33L5.091 10.1025L5.09975 10.0115C5.14175 9.55736 5.20387 9.11636 5.29225 8.78474C5.37185 8.4874 5.52809 8.21616 5.74536 7.99812C5.96263 7.78008 6.23332 7.62289 6.53038 7.54224C6.9565 7.42849 7.88137 7.35849 8.85262 7.31474L9.00138 7.30861L9.15188 7.30337L9.22712 7.30074L9.37675 7.29462C10.2095 7.26784 11.0426 7.25297 11.8757 7.24999L12.0446 7.24911ZM10.6 10.0579V14.2736L14.2374 12.1666L10.6 10.0579Z" fill="white"/>
</svg>
