<svg width="16" height="16" viewBox="0 0 16 16" fill="none" xmlns="http://www.w3.org/2000/svg">
<path fill-rule="evenodd" clip-rule="evenodd" d="M0.813814 0.813814C1.23223 0.395395 1.91062 0.395395 2.32904 0.813814L8 6.48477L13.671 0.813814C14.0894 0.395395 14.7678 0.395395 15.1862 0.813814C15.6046 1.23223 15.6046 1.91062 15.1862 2.32904L9.51523 8L15.1862 13.671C15.6046 14.0894 15.6046 14.7678 15.1862 15.1862C14.7678 15.6046 14.0894 15.6046 13.671 15.1862L8 9.51523L2.32904 15.1862C1.91062 15.6046 1.23223 15.6046 0.813814 15.1862C0.395395 14.7678 0.395395 14.0894 0.813814 13.671L6.48477 8L0.813814 2.32904C0.395395 1.91062 0.395395 1.23223 0.813814 0.813814Z" fill="#212121"/>
</svg>
