<svg width="24" height="25" viewBox="0 0 24 25" fill="none" xmlns="http://www.w3.org/2000/svg">
<rect y="0.5" width="24" height="24" rx="12" fill="#212121"/>
<path d="M12.002 6.59782C13.9259 6.59782 14.1517 6.60639 14.9121 6.6407C15.6153 6.67214 15.9955 6.78935 16.2499 6.8894C16.5873 7.0209 16.8274 7.17527 17.079 7.42683C17.3305 7.67839 17.4877 7.91852 17.6164 8.25584C17.7136 8.51026 17.8336 8.89046 17.8651 9.59369C17.8994 10.3541 17.908 10.5799 17.908 12.5038C17.908 14.4277 17.8994 14.6535 17.8651 15.4139C17.8336 16.1171 17.7164 16.4973 17.6164 16.7518C17.4849 17.0891 17.3305 17.3292 17.079 17.5808C16.8274 17.8323 16.5873 17.9896 16.2499 18.1182C15.9955 18.2154 15.6153 18.3355 14.9121 18.3669C14.1517 18.4012 13.9259 18.4098 12.002 18.4098C10.0781 18.4098 9.85227 18.4012 9.09187 18.3669C8.38864 18.3355 8.00844 18.2183 7.75402 18.1182C7.4167 17.9867 7.17657 17.8323 6.92501 17.5808C6.67345 17.3292 6.51622 17.0891 6.38758 16.7518C6.29039 16.4973 6.17032 16.1171 6.13888 15.4139C6.10457 14.6535 6.096 14.4277 6.096 12.5038C6.096 10.5799 6.10457 10.3541 6.13888 9.59369C6.17032 8.89046 6.28753 8.51026 6.38758 8.25584C6.51908 7.91852 6.67345 7.67839 6.92501 7.42683C7.17657 7.17527 7.4167 7.01804 7.75402 6.8894C8.00844 6.79221 8.38864 6.67214 9.09187 6.6407C9.85227 6.60353 10.081 6.59782 12.002 6.59782ZM12.002 5.29999C10.0467 5.29999 9.80082 5.30856 9.03184 5.34287C8.26572 5.37717 7.74258 5.50009 7.2852 5.67733C6.81066 5.86028 6.41045 6.10899 6.01024 6.5092C5.61003 6.90941 5.36418 7.31248 5.17837 7.78416C5.00113 8.24154 4.87821 8.76468 4.84391 9.53366C4.8096 10.2998 4.80103 10.5456 4.80103 12.5009C4.80103 14.4563 4.8096 14.7021 4.84391 15.4711C4.87821 16.2372 5.00113 16.7603 5.17837 17.2206C5.36132 17.6951 5.61003 18.0953 6.01024 18.4955C6.41045 18.8958 6.81352 19.1416 7.2852 19.3274C7.74258 19.5046 8.26572 19.6276 9.0347 19.6619C9.80368 19.6962 10.0467 19.7048 12.0048 19.7048C13.963 19.7048 14.206 19.6962 14.975 19.6619C15.7411 19.6276 16.2642 19.5046 16.7245 19.3274C17.199 19.1445 17.5992 18.8958 17.9994 18.4955C18.3997 18.0953 18.6455 17.6923 18.8313 17.2206C19.0086 16.7632 19.1315 16.2401 19.1658 15.4711C19.2001 14.7021 19.2087 14.4591 19.2087 12.5009C19.2087 10.5428 19.2001 10.2998 19.1658 9.5308C19.1315 8.76468 19.0086 8.24154 18.8313 7.7813C18.6484 7.30676 18.3997 6.90655 17.9994 6.50634C17.5992 6.10613 17.1962 5.86028 16.7245 5.67447C16.2671 5.49723 15.744 5.37431 14.975 5.34001C14.2031 5.30856 13.9573 5.29999 12.002 5.29999Z" fill="white"/>
<path d="M12.002 6.59782C13.9259 6.59782 14.1517 6.60639 14.9121 6.6407C15.6153 6.67214 15.9955 6.78935 16.2499 6.8894C16.5873 7.0209 16.8274 7.17527 17.079 7.42683C17.3305 7.67839 17.4877 7.91852 17.6164 8.25584C17.7136 8.51026 17.8336 8.89046 17.8651 9.59369C17.8994 10.3541 17.908 10.5799 17.908 12.5038C17.908 14.4277 17.8994 14.6535 17.8651 15.4139C17.8336 16.1171 17.7164 16.4973 17.6164 16.7518C17.4849 17.0891 17.3305 17.3292 17.079 17.5808C16.8274 17.8323 16.5873 17.9896 16.2499 18.1182C15.9955 18.2154 15.6153 18.3355 14.9121 18.3669C14.1517 18.4012 13.9259 18.4098 12.002 18.4098C10.0781 18.4098 9.85227 18.4012 9.09187 18.3669C8.38864 18.3355 8.00844 18.2183 7.75402 18.1182C7.4167 17.9867 7.17657 17.8323 6.92501 17.5808C6.67345 17.3292 6.51622 17.0891 6.38758 16.7518C6.29039 16.4973 6.17032 16.1171 6.13888 15.4139C6.10457 14.6535 6.096 14.4277 6.096 12.5038C6.096 10.5799 6.10457 10.3541 6.13888 9.59369C6.17032 8.89046 6.28753 8.51026 6.38758 8.25584C6.51908 7.91852 6.67345 7.67839 6.92501 7.42683C7.17657 7.17527 7.4167 7.01804 7.75402 6.8894C8.00844 6.79221 8.38864 6.67214 9.09187 6.6407C9.85227 6.60353 10.081 6.59782 12.002 6.59782Z" fill="white"/>
<path d="M12.0018 8.80472C9.96075 8.80472 8.30273 10.4599 8.30273 12.5038C8.30273 14.5478 9.9579 16.2029 12.0018 16.2029C14.0458 16.2029 15.7009 14.5478 15.7009 12.5038C15.7009 10.4599 14.0458 8.80472 12.0018 8.80472ZM12.0018 14.9022C10.6754 14.9022 9.60056 13.8274 9.60056 12.501C9.60056 11.1745 10.6754 10.0997 12.0018 10.0997C13.3283 10.0997 14.4031 11.1745 14.4031 12.501C14.4031 13.8274 13.3283 14.9022 12.0018 14.9022Z" fill="#212121"/>
<path d="M15.8467 9.51938C16.3235 9.51938 16.71 9.13286 16.71 8.65607C16.71 8.17927 16.3235 7.79276 15.8467 7.79276C15.3699 7.79276 14.9834 8.17927 14.9834 8.65607C14.9834 9.13286 15.3699 9.51938 15.8467 9.51938Z" fill="#212121"/>
</svg>
